<svg id="visual" viewBox="0 0 900 600" width="900" height="600" xmlns="http://www.w3.org/2000/svg" xmlns:xlink="http://www.w3.org/1999/xlink" version="1.1"><rect x="0" y="0" width="900" height="600" fill="#1b0d2f"></rect><defs><linearGradient id="grad1_0" x1="33.3%" y1="100%" x2="100%" y2="0%"><stop offset="20%" stop-color="#1b0d2f" stop-opacity="1"></stop><stop offset="80%" stop-color="#1b0d2f" stop-opacity="1"></stop></linearGradient></defs><defs><linearGradient id="grad2_0" x1="0%" y1="100%" x2="66.7%" y2="0%"><stop offset="20%" stop-color="#1b0d2f" stop-opacity="1"></stop><stop offset="80%" stop-color="#1b0d2f" stop-opacity="1"></stop></linearGradient></defs><g transform="translate(900, 600)"><path d="M-486.7 0C-463.4 -56.5 -440.1 -113 -420.4 -174.1C-400.7 -235.2 -384.6 -300.8 -344.2 -344.2C-303.8 -387.5 -239 -408.6 -177.6 -428.7C-116.1 -448.7 -58.1 -467.7 0 -486.7L0 0Z" fill="#FCAF3C"></path></g><g transform="translate(0, 0)"><path d="M486.7 0C487.3 70.5 487.9 140.9 449.7 186.3C411.5 231.6 334.4 251.8 282.8 282.8C231.3 313.9 205.2 355.9 162.3 391.7C119.4 427.5 59.7 457.1 0 486.7L0 0Z" fill="#FCAF3C"></path></g></svg>